<svg xmlns="http://www.w3.org/2000/svg" viewBox="0 0 100 100" width="70px">
    <path
      fill="#f8e55b"
      d="M79.64,67.15c1.978-2.12,6.959-7.511,8.159-10.334c0.733-1.723,1.248-3.481,1.585-5.248c-5.11,2.991-11.511,3.631-17.379,1.135c-9.851-4.189-14.44-15.57-10.251-25.421c0.979-2.301,2.361-4.302,4.014-5.984c-10.484-0.617-20.695,5.281-25.04,15.5c-1.178,2.77-1.932,8.259-2.103,11.102"
    />
    <path
      fill="#565fa0"
      d="M75.452,62.866c-0.732,0-1.438,0.112-2.113,0.304c-0.442-5.735-4.963-10.245-10.484-10.245c-3.183,0-6.03,1.505-7.961,3.872c-2.357-5.042-7.246-8.517-12.912-8.517c-7.808,0-14.151,6.586-14.395,14.804c-0.579-0.139-1.179-0.218-1.798-0.218c-4.492,0-8.134,3.862-8.134,8.626c0,4.764,3.642,8.626,8.134,8.626c0.522,0,49.141,0,49.663,0c4.492,0,8.134-3.862,8.134-8.626C83.586,66.728,79.944,62.866,75.452,62.866z"
    />
    <path
      fill="#1f212b"
      d="M75.654,81.228H25.817c-5.052,0-9.162-4.331-9.162-9.655c0-5.629,4.6-10.191,10.038-9.609c0.785-8.321,7.342-14.683,15.374-14.683c5.451,0,10.386,2.964,13.188,7.825c2.117-2.026,4.875-3.164,7.759-3.164c5.61,0,10.414,4.34,11.379,10.071c0.423-0.064,0.845-0.097,1.262-0.097c5.052,0,9.162,4.332,9.162,9.656S80.705,81.228,75.654,81.228z M25.817,63.917c-3.949,0-7.162,3.435-7.162,7.656c0,4.221,3.213,7.655,7.162,7.655h49.837c3.949,0,7.162-3.435,7.162-7.655c0-4.867-4.32-8.729-9.008-7.389c-0.289,0.08-0.599,0.03-0.846-0.141c-0.246-0.172-0.402-0.445-0.426-0.744c-0.404-5.247-4.588-9.357-9.523-9.357c-2.762,0-5.392,1.282-7.214,3.518c-0.218,0.267-0.561,0.4-0.898,0.36c-0.342-0.042-0.637-0.257-0.783-0.568c-2.298-4.917-6.916-7.971-12.051-7.971c-7.309,0-13.214,6.099-13.445,13.885c-0.01,0.302-0.153,0.582-0.393,0.766c-0.239,0.182-0.548,0.248-0.841,0.178C26.858,63.981,26.329,63.917,25.817,63.917z"
    />
    <path
      fill="#1f212b"
      d="M57.421 77.228h-4c-.276 0-.5-.224-.5-.5s.224-.5.5-.5h4c.276 0 .5.224.5.5S57.698 77.228 57.421 77.228zM51.421 77.228h-1c-.276 0-.5-.224-.5-.5s.224-.5.5-.5h1c.276 0 .5.224.5.5S51.698 77.228 51.421 77.228zM49.421 77.228h-25c-.276 0-.5-.224-.5-.5s.224-.5.5-.5h25c.276 0 .5.224.5.5S49.698 77.228 49.421 77.228zM82.973 64.822c-.244 0-.489-.089-.682-.269-.404-.377-.427-1.01-.05-1.413 1.949-2.09 3.51-4.495 4.638-7.148.406-.955.753-1.95 1.038-2.974-5.18 2.34-11.009 2.425-16.304.172-5.01-2.13-8.891-6.084-10.927-11.133s-1.983-10.589.147-15.599c.705-1.659 1.626-3.209 2.749-4.627-9.525.265-18.167 6.064-21.937 14.926-1.107 2.606-1.755 5.347-1.922 8.143-.032.552-.511.952-1.058.938-.552-.033-.972-.507-.938-1.058.181-3.025.88-5.988 2.078-8.807 4.377-10.291 14.831-16.783 26.02-16.106.392.022.733.272.874.639.142.365.056.78-.219 1.06-1.632 1.662-2.913 3.571-3.808 5.676-1.921 4.519-1.969 9.514-.132 14.067 1.836 4.554 5.336 8.119 9.854 10.041 5.389 2.293 11.397 1.899 16.482-1.078.338-.198.761-.181 1.082.047.32.226.479.618.405 1.004-.362 1.899-.916 3.733-1.647 5.452-1.219 2.868-2.906 5.469-5.015 7.729C83.507 64.716 83.241 64.822 82.973 64.822z"
    />
    <path
      fill="#f8e55b"
      d="M28.6 40.47L29.786 42.872 32.437 43.257 30.519 45.127 30.972 47.767 28.6 46.521 26.229 47.767 26.682 45.127 24.764 43.257 27.415 42.872z"
    />
    <path
      fill="#1f212b"
      d="M26.229,48.267c-0.104,0-0.207-0.032-0.294-0.096c-0.154-0.111-0.231-0.301-0.199-0.489l0.409-2.381l-1.729-1.687c-0.137-0.133-0.186-0.332-0.127-0.513c0.059-0.182,0.216-0.313,0.403-0.341l2.391-0.347l1.069-2.167c0.168-0.34,0.729-0.34,0.896,0l1.069,2.167l2.392,0.347c0.188,0.027,0.345,0.159,0.403,0.341c0.059,0.181,0.01,0.38-0.127,0.513l-1.729,1.687l0.408,2.382c0.032,0.188-0.045,0.377-0.199,0.488c-0.153,0.112-0.358,0.127-0.526,0.038L28.6,47.085l-2.139,1.125C26.388,48.249,26.309,48.267,26.229,48.267z M28.6,46.02c0.08,0,0.16,0.02,0.232,0.058l1.475,0.775l-0.281-1.643c-0.027-0.162,0.026-0.327,0.145-0.442l1.192-1.162l-1.649-0.239c-0.162-0.024-0.304-0.126-0.376-0.273L28.6,41.599l-0.737,1.494c-0.072,0.147-0.214,0.249-0.376,0.273l-1.648,0.239l1.192,1.162c0.118,0.115,0.172,0.281,0.145,0.443l-0.282,1.642l1.475-0.775C28.44,46.04,28.52,46.02,28.6,46.02z"
    />
    <path
      fill="#f8e55b"
      d="M63.322 59.886L64.508 62.289 67.159 62.674 65.241 64.544 65.693 67.184 63.322 65.937 60.951 67.184 61.404 64.544 59.486 62.674 62.137 62.289z"
    />
    <path
      fill="#1f212b"
      d="M60.952 67.684c-.104 0-.207-.032-.294-.096-.154-.111-.231-.301-.199-.488l.408-2.382-1.729-1.687C59 62.899 58.952 62.7 59.01 62.519c.059-.182.216-.313.403-.341l2.392-.347 1.069-2.167c.168-.34.729-.34.896 0l1.069 2.167 2.391.347c.188.027.345.159.403.341.059.181.01.38-.127.513l-1.729 1.687.409 2.381c.032.188-.045.378-.199.489-.154.112-.358.128-.526.038l-2.139-1.125-2.139 1.125C61.111 67.666 61.032 67.684 60.952 67.684zM60.56 63.023l1.192 1.162c.118.115.172.28.145.442l-.281 1.643 1.475-.775c.145-.076.32-.076.465 0l1.475.775-.282-1.642c-.027-.162.026-.328.145-.443l1.192-1.162-1.648-.239c-.162-.024-.304-.126-.376-.273l-.737-1.494-.737 1.494c-.072.147-.214.249-.376.273L60.56 63.023zM53.148 28.809c-.176 0-.346-.093-.438-.257-.134-.242-.047-.546.194-.681 1.693-.939 3.498-1.373 5.336-1.3.276.012.49.245.479.521-.012.275-.243.488-.521.479-1.667-.076-3.28.325-4.809 1.175C53.314 28.789 53.231 28.809 53.148 28.809zM44.281 44.443c-.268 0-.489-.211-.5-.48-.02-.503-.019-1.013.002-1.528.21-5.022 2.388-9.614 5.827-12.284.216-.17.531-.132.701.088.17.218.13.532-.088.701-3.21 2.492-5.243 6.805-5.44 11.536-.021.488-.021.971-.002 1.448.011.275-.204.508-.48.52C44.293 44.443 44.287 44.443 44.281 44.443z"
    />
  </svg>