 <svg xmlns="http://www.w3.org/2000/svg" viewBox="0 0 100 100" width="70px">
    <path
      fill="#fefdef"
      d="M66.704,27.498C62.605,20.614,55.093,16,46.5,16c-12.336,0-22.444,9.507-23.416,21.592C15.842,41.971,11,49.92,11,59c0,13.807,11.193,25,25,25c5.277,0,10.168-1.639,14.202-4.429C53.65,81.127,57.472,82,61.5,82C76.688,82,89,69.688,89,54.5C89,41.092,79.402,29.931,66.704,27.498z"
    />
    <path fill="#f9e65c" d="M41 39A14 14 0 1 0 41 67A14 14 0 1 0 41 39Z" />
    <path
      fill="#1f212b"
      d="M67.329,26.604C62.881,19.435,54.941,15,46.5,15c-12.504,0-23.109,9.624-24.366,22.004C14.525,41.802,10,49.987,10,59c0,14.336,11.663,26,26,26c5.118,0,10.052-1.482,14.305-4.292C53.856,82.229,57.62,83,61.5,83C77.215,83,90,70.215,90,54.5C90,41,80.493,29.339,67.329,26.604z M61.5,81c-3.782,0-7.445-0.788-10.887-2.341c-0.318-0.144-0.691-0.11-0.98,0.089C45.612,81.53,40.897,83,36,83c-13.233,0-24-10.766-24-24c0-8.477,4.337-16.16,11.602-20.552c0.275-0.167,0.453-0.455,0.479-0.776C25.013,26.081,34.86,17,46.5,17c7.89,0,15.302,4.219,19.344,11.01c0.146,0.245,0.391,0.417,0.671,0.47C78.964,30.865,88,41.808,88,54.5C88,69.112,76.112,81,61.5,81z"
    />
    <path
      fill="#1f212b"
      d="M41,38c-8.271,0-15,6.729-15,15s6.729,15,15,15s15-6.729,15-15S49.271,38,41,38z M41,66c-7.168,0-13-5.832-13-13s5.832-13,13-13s13,5.832,13,13S48.168,66,41,66z"
    />
    <path
      fill="#1f212b"
      d="M41 62c-4.963 0-9-4.038-9-9 0-.276-.224-.5-.5-.5S31 52.724 31 53c0 5.514 4.486 10 10 10 .276 0 .5-.224.5-.5S41.276 62 41 62zM84.413 53c.015 0 .029 0 .044-.002.274-.023.479-.266.455-.541-.058-.678-.147-1.365-.267-2.044-.048-.273-.32-.454-.578-.406-.272.048-.454.307-.406.579.113.649.199 1.308.255 1.956C83.938 52.803 84.156 53 84.413 53zM84.5 54c-.276 0-.5.224-.5.5 0 .979-.064 1.967-.19 2.936-.035.274.157.524.432.56C84.263 57.999 84.285 58 84.307 58c.247 0 .462-.184.495-.436C84.934 56.554 85 55.522 85 54.5 85 54.224 84.776 54 84.5 54zM84.063 59.012c-.279-.058-.537.111-.597.38C81.205 69.595 71.967 77 61.5 77c-.276 0-.5.224-.5.5s.224.5.5.5c10.932 0 20.58-7.735 22.943-18.392C84.503 59.339 84.333 59.072 84.063 59.012z"
    />
  </svg>